<svg xmlns="http://www.w3.org/2000/svg" width="32" height="32" viewBox="0 0 32 32">
  <g id="favicon" transform="translate(-623 -269)">
    <circle id="back" cx="16" cy="16" r="16" transform="translate(623 269)" fill="#fff"/>
    <g id="text" transform="translate(-47 -10)">
      <path id="T" d="M4.666,29.983a3.9,3.9,0,0,0,4.269-4.092A2.781,2.781,0,0,0,6.7,22.9l-1-.29c-.95-.266-1.288-.567-1.288-1.243a1.464,1.464,0,0,1,1.671-1.557,2.4,2.4,0,0,1,2.1,1.135l1.485-1.509A3.962,3.962,0,0,0,6.183,17.78c-2.544,0-4.116,1.521-4.116,3.85a2.778,2.778,0,0,0,2.216,2.957l1.059.278c.852.217,1.234.531,1.234,1.316a1.6,1.6,0,0,1-1.769,1.738,3.219,3.219,0,0,1-2.631-1.34L.757,28.173A4.38,4.38,0,0,0,4.666,29.983Z" transform="translate(675.169 271.441)" fill="#1f1d6a"/>
      <path id="S" d="M66.716,20.049h3.09l.306-2.064h-8.44l-.306,2.064h3.09l-1.474,9.729h2.26Z" transform="translate(625.169 271.441)" fill="#1f1d6a"/>
    </g>
  </g>
</svg>
