<svg xmlns="http://www.w3.org/2000/svg" width="123.226" height="47.988" viewBox="0 0 123.226 47.988">
  <g id="logo" transform="translate(-465.573 -284.753)">
    <g id="iphone" transform="translate(465.573 332.741) rotate(-90)">
      <path id="Path_5" data-name="Path 5" d="M39.648,0H8.34C3.741,0,0,5.171,0,11.526V111.7c0,6.355,3.741,11.526,8.34,11.526H39.648c4.6,0,8.34-5.171,8.34-11.526V11.526C47.988,5.171,44.247,0,39.648,0Z" transform="translate(0)" fill="#161460"/>
      <path id="Path_6" data-name="Path 6" d="M5.2,111.7V11.526C5.2,5.171,9.412,0,14.588,0h-5.2C4.211,0,0,5.171,0,11.526V111.7c0,6.355,4.211,11.526,9.388,11.526h5.2C9.412,123.225,5.2,118.055,5.2,111.7Z" transform="translate(0 0)" fill="#020044"/>
      <path id="Path_7" data-name="Path 7" d="M39.361,108.606c0,2.927-1.692,5.3-3.778,5.3H3.778c-2.087,0-3.778-2.373-3.778-5.3V5.3C0,2.374,1.692,0,3.778,0H7.742c.781,0,1.414.888,1.414,1.984V3.242c0,1.688.984,3.068,2.187,3.068H28.019c1.2,0,2.187-1.381,2.187-3.068V1.422C30.206.637,30.659,0,31.219,0h4.364c2.087,0,3.778,2.373,3.778,5.3Z" transform="translate(4.425 4.386)" fill="#fff"/>
      <path id="Path_8" data-name="Path 8" d="M4.994,108.607V5.3C4.994,2.534,6.671.264,8.809.025,8.566-.02,8.825.012,4.186,0,1.874,0,0,2.375,0,5.3v103.3c0,2.927,1.874,5.3,4.186,5.3H9.181C6.869,113.908,4.994,111.535,4.994,108.607Z" transform="translate(4.201 4.384)" fill="#d9eef6"/>
    </g>
    <g id="d60c4ddc-6dff-478e-976f-f3022144c0ef" transform="translate(479.926 300.533)">
      <path id="Path_37" data-name="Path 37" d="M4.738,29.983c2.758,0,4.348-1.678,4.348-4.092A2.79,2.79,0,0,0,6.807,22.9l-1.023-.29c-.968-.266-1.312-.567-1.312-1.243,0-.954.567-1.557,1.7-1.557a2.456,2.456,0,0,1,2.135,1.135l1.512-1.509A4.062,4.062,0,0,0,6.284,17.78c-2.591,0-4.193,1.521-4.193,3.85a2.786,2.786,0,0,0,2.258,2.957l1.079.278c.867.217,1.257.531,1.257,1.316a1.61,1.61,0,0,1-1.8,1.738,3.3,3.3,0,0,1-2.68-1.34L.757,28.173A4.491,4.491,0,0,0,4.738,29.983Zm6.539-9.077.623,8.872h2.324l2.625-5.9h.1l.9,5.9h2.291l3.737-8.872H21.731l-2.369,6.337h-.1l-.856-6.337H16.382l-2.691,6.216H13.6l-.156-6.216Zm17.927-1c.934,0,1.346-.4,1.457-1.11a4.17,4.17,0,0,0,.078-.676c0-.591-.345-1.026-1.279-1.026s-1.346.4-1.457,1.11a4.17,4.17,0,0,0-.078.676C27.926,19.47,28.271,19.9,29.2,19.9ZM28.56,29.983c1.079,0,1.946-.664,2.992-1.943l.945-1.183L31.251,25.65l-2.18,2.426-.256-.084,1.19-6.928H25.279l-.3,1.919h2.436L26.792,26.6a6.2,6.2,0,0,0-.156,1.352A1.8,1.8,0,0,0,28.56,29.983Zm7.4,3.38c1.312,0,2.213-.8,2.513-2.692l1.179-7.689h2.914l.289-1.919H39.959l.278-1.859h2.9l.289-1.931H40.66a2.616,2.616,0,0,0-2.769,2.462l-.2,1.328H35.144l-.289,1.919H37.39l-1.279,8.353-.189.084-1.6-2.305-1.557,1.171.645,1C34.209,32.53,34.821,33.363,35.955,33.363Zm10.977-3.38c1.112,0,1.857-.591,3.181-1.823l.934-.881-1.123-1.388L47.5,27.967l-.311-.121.745-4.864H51.08l.289-1.919H48.222l.467-3.078H46.576l-.311,2.064c-.111.76-.423,1.014-1.09,1.014h-1.29l-.3,1.919h2.057L45.064,26.7a7.143,7.143,0,0,0-.111,1.123C44.953,29.114,45.564,29.983,46.932,29.983ZM67.94,20.049h3.147l.311-2.064H62.8l-.311,2.064h3.147l-1.5,9.729h2.3ZM75,29.983a4.34,4.34,0,0,0,3.926-2.39l-1.412-.99c-.823,1.147-1.323,1.485-2.213,1.485-1.09,0-1.546-.519-1.546-1.448a1.5,1.5,0,0,1,.022-.29c4.571-.193,5.416-1.69,5.416-3.09,0-1.605-1.335-2.4-2.958-2.4-2.847,0-4.738,2.161-4.738,5.408C71.5,28.583,72.645,29.983,75,29.983ZM76,22.6c.69,0,1,.326,1,.881s-.189,1.279-3.069,1.448l.044-.229C74.279,23.188,75.025,22.6,76,22.6Zm8.219,7.387c1.935,0,2.992-1.014,4.048-2.837l-1.412-1C85.723,27.762,85.256,28,84.6,28c-1.034,0-1.424-.6-1.424-1.509a5.232,5.232,0,0,1,.067-.785L83.4,24.7c.189-1.219.845-1.859,1.724-1.859.912,0,1.234.447,1.457,1.183l1.846-.954a2.858,2.858,0,0,0-3.114-2.209c-2.858,0-4.449,2.462-4.449,5.444C80.863,28.631,82.042,29.983,84.222,29.983Zm7.4-12.71L89.7,29.778h2.269l.7-4.551a4.4,4.4,0,0,1,.734-1.69,1.506,1.506,0,0,1,1.268-.785.929.929,0,0,1,.934,1.026,6.494,6.494,0,0,1-.111,1.05l-.767,4.949h2.28l.712-4.647a11.13,11.13,0,0,0,.167-1.762c0-1.352-.623-2.511-2.191-2.511-1.279,0-2.013.857-2.613,2.281h-.078l.89-5.866Z" transform="translate(-0.757 -17.092)" fill="#1f1d6a"/>
    </g>
    <g id="flash" transform="matrix(0.998, 0.07, -0.07, 0.998, 530.906, 297.943)">
      <path id="Path_38" data-name="Path 38" d="M11.08,6.925H6.336L10.734,0H5.194L0,10.387H4.086L0,20.082Z" transform="translate(0.364 0.346)" fill="#ffdd09"/>
      <path id="Path_42" data-name="Path 42" d="M.708,0H3.58s1.256-.114.548,1.207C3.152,1.248,0,1.17,0,1.17Z" transform="translate(1.579 9.58)" fill="#fd9808"/>
      <path id="Path_39" data-name="Path 39" d="M6.579,0H5.194L0,10.387H1.385Z" transform="translate(0.364 0.346)" fill="#fd9808"/>
      <path id="Path_40" data-name="Path 40" d="M3.084,0,0,7.515l.351.639L4.682,0Z" transform="translate(1.056 10.734)" fill="#fd9808"/>
      <path id="Path_41" data-name="Path 41" d="M.19,20.74a.346.346,0,0,1-.138-.415L3.93,11.08H.364a.413.413,0,0,1-.312-.173.314.314,0,0,1,0-.346L5.246.173A.364.364,0,0,1,5.557,0H11.1a.364.364,0,0,1,.312.173.314.314,0,0,1,0,.346L7.358,6.925h4.086a.333.333,0,0,1,.312.208.372.372,0,0,1-.035.381L.641,20.671A.723.723,0,0,1,.19,20.74ZM.918,10.387H4.449a.428.428,0,0,1,.277.138.336.336,0,0,1,.035.312L1.575,18.455,10.716,7.617H6.7a.364.364,0,0,1-.312-.173.314.314,0,0,1,0-.346L10.474.692H5.765Z" transform="translate(0 0)"/>
    </g>
  </g>
</svg>
